<?xml version="1.0" encoding="UTF-8"?>
<svg width="243px" height="107px" viewBox="0 0 243 107" version="1.1" xmlns="http://www.w3.org/2000/svg" xmlns:xlink="http://www.w3.org/1999/xlink">
    <!-- Generator: Sketch 55 (78076) - https://sketchapp.com -->
    <title>wawooh</title>
    <desc>Created with Sketch.</desc>
    <g id="Page-1" stroke="none" stroke-width="1" fill="none" fill-rule="evenodd">
        <g id="wawooh" transform="translate(0.000000, -23.000000)" fill="#2A3342" fill-rule="nonzero">
            <path d="M42.3046875,129.492188 C32.265625,129.492188 25.078125,105.625 23.6328125,98.59375 C23.3984375,102.148438 21.875,122.734375 14.140625,122.734375 C5.1171875,122.734375 0,92.7734375 0,67.9296875 C0,50.3515625 2.578125,35.3125 8.0859375,35.3125 C11.40625,35.3125 13.59375,39.609375 13.59375,42.6953125 C13.59375,44.4140625 12.890625,45.78125 11.328125,45.78125 C10.9375,45.78125 8.515625,45.5078125 8.515625,45.3125 C6.7578125,49.84375 6.015625,58.4765625 6.015625,68.125 C6.015625,88.75 9.53125,114.0625 14.4140625,114.0625 C17.7734375,114.0625 19.2578125,87.8125 19.2578125,76.8359375 C19.2578125,73.828125 18.984375,70.5859375 18.984375,70.5078125 C18.984375,66.9921875 20.546875,65.7421875 22.1484375,65.7421875 C23.59375,65.7421875 25.0390625,66.71875 25.46875,67.9296875 C26.4453125,78.6328125 31.3671875,120.78125 41.9140625,120.78125 C49.140625,120.78125 50.234375,81.5625 50.234375,76.015625 C50.234375,47.2265625 41.09375,27.421875 41.09375,26.7578125 C41.09375,24.6875 42.421875,23.4375 44.0625,23.4375 C53.828125,23.4375 57.03125,66.171875 57.03125,80.4296875 C57.03125,93.7109375 55.15625,129.492188 42.3046875,129.492188 Z M94.1015625,105.117188 C83.4765625,105.117188 82.6953125,94.921875 82.6953125,94.921875 C82.6953125,95.15625 77.4609375,105.039062 68.3203125,105.039062 C63.9453125,105.039062 62.109375,102.96875 62.109375,100.234375 C62.109375,95.078125 68.59375,87.6953125 76.6796875,87.6953125 C78.359375,87.6953125 79.1796875,88.59375 79.1796875,89.8828125 C79.1796875,91.015625 77.96875,91.171875 76.640625,91.171875 C72.3828125,91.171875 69.6484375,96.5234375 69.6484375,98.0078125 C69.6484375,98.5546875 70.078125,98.90625 70.859375,98.90625 C74.1015625,98.90625 79.21875,94.0234375 82.2265625,89.1015625 C82.2265625,89.1015625 83.28125,85.8984375 85.703125,85.8984375 C87.734375,85.8984375 88.0078125,87.2265625 88.0078125,88.2421875 L87.96875,89.765625 C87.96875,93.4765625 88.8671875,100.078125 94.375,100.078125 C98.125,100.078125 101.289062,97.734375 102.34375,96.796875 C103.398438,95.78125 104.335938,95.4296875 105.078125,95.4296875 C105.898438,95.4296875 106.523438,96.0546875 106.523438,96.796875 C106.523438,101.835938 98.203125,105.117188 94.1015625,105.117188 Z M108.90625,109.179688 C104.335938,109.179688 102.1875,103.75 102.1875,99.609375 C102.1875,97.03125 102.382812,93.8671875 104.921875,93.8671875 C107.773438,93.8671875 108.046875,95.1953125 108.046875,96.7578125 C108.046875,98.0078125 107.851562,99.4921875 107.851562,100.820312 C107.851562,101.5625 108.164062,104.257812 108.75,104.257812 C110.546875,104.257812 111.796875,95.1953125 111.953125,94.2578125 C112.5,91.328125 112.109375,89.765625 114.570312,89.765625 C118.710938,89.765625 115.664062,104.375 122.03125,104.375 C123.476562,102.773438 123.789062,101.640625 123.789062,100.664062 C123.789062,98.1640625 122.148438,96.953125 122.148438,95.46875 C122.148438,94.21875 122.421875,92.9296875 124.492188,92.9296875 C126.09375,92.9296875 127.890625,95.7421875 128.164062,96.0546875 C129.101562,96.9921875 130.039062,97.34375 130.976562,97.34375 C133.867188,97.34375 134.414062,95.6640625 135.585938,95.6640625 C137.148438,95.6640625 137.421875,96.5625 137.421875,97.6953125 C137.421875,99.5703125 135.390625,102.265625 131.484375,102.265625 C130.78125,102.265625 128.867188,101.757812 128.867188,101.757812 C128.4375,105.585938 125.546875,109.140625 121.953125,109.140625 C118.320312,109.140625 116.328125,106.640625 114.296875,105.078125 C112.96875,107.578125 111.25,109.179688 108.90625,109.179688 Z M139.023438,104.023438 C141.601562,104.023438 143.242188,102.578125 144.375,100.9375 C142.265625,100.078125 140.742188,97.578125 140.742188,95.5078125 L140.664062,95.5078125 C139.0625,95.5078125 136.640625,99.453125 136.640625,101.992188 C136.640625,103.164062 137.382812,104.023438 139.023438,104.023438 Z M139.414062,108.164062 C134.921875,108.164062 131.992188,105.507812 131.992188,102.109375 C131.992188,98.28125 134.21875,93.515625 138.59375,93.515625 C139.296875,93.515625 140.039062,93.6328125 140.859375,93.90625 C141.601562,91.2890625 143.242188,89.765625 146.640625,89.765625 C149.726562,89.765625 150.898438,92.3828125 150.898438,95.46875 C150.898438,96.4453125 150.78125,97.4609375 150.546875,98.28125 C152.03125,99.296875 153.671875,100.195312 156.09375,100.195312 C161.796875,100.195312 164.53125,95.546875 166.796875,95.546875 C167.226562,95.546875 168.28125,96.2109375 168.28125,96.9140625 C168.28125,101.289062 161.210938,105.234375 155.546875,105.234375 C153.398438,105.234375 150.46875,104.6875 148.085938,103.28125 C145,106.25 142.8125,108.164062 139.414062,108.164062 Z M169.84375,104.023438 C172.421875,104.023438 174.0625,102.578125 175.195312,100.9375 C173.085938,100.078125 171.5625,97.578125 171.5625,95.5078125 L171.484375,95.5078125 C169.882812,95.5078125 167.460938,99.453125 167.460938,101.992188 C167.460938,103.164062 168.203125,104.023438 169.84375,104.023438 Z M170.234375,108.164062 C165.742188,108.164062 162.8125,105.507812 162.8125,102.109375 C162.8125,98.28125 165.039062,93.515625 169.414062,93.515625 C170.117188,93.515625 170.859375,93.6328125 171.679688,93.90625 C172.421875,91.2890625 174.0625,89.765625 177.460938,89.765625 C180.546875,89.765625 181.71875,92.3828125 181.71875,95.46875 C181.71875,96.4453125 181.601562,97.4609375 181.367188,98.28125 C182.851562,99.296875 184.492188,100.195312 186.914062,100.195312 C192.617188,100.195312 195.351562,95.546875 197.617188,95.546875 C198.046875,95.546875 199.101562,96.2109375 199.101562,96.9140625 C199.101562,101.289062 192.03125,105.234375 186.367188,105.234375 C184.21875,105.234375 181.289062,104.6875 178.90625,103.28125 C175.820312,106.25 173.632812,108.164062 170.234375,108.164062 Z M200.429688,92.65625 C211.09375,83.0859375 219.492188,62.96875 219.492188,47.34375 C219.492188,42.1875 217.460938,38.7890625 214.570312,38.7890625 C204.453125,38.7890625 199.140625,61.796875 199.140625,79.53125 C199.140625,84.53125 199.570312,89.140625 200.429688,92.65625 Z M201.757812,108.710938 C200.078125,108.710938 199.335938,108.125 199.0625,107.734375 C195.585938,102.695312 193.710938,92.578125 193.710938,81.015625 C193.710938,58.828125 200.546875,32.6171875 214.335938,32.6171875 C221.367188,32.6171875 224.375,38.7109375 224.375,47.421875 C224.375,62.4609375 215.3125,85.3125 201.914062,98.0859375 L202.65625,100.859375 C202.65625,100.859375 210.117188,90.0390625 216.25,90.0390625 C222.695312,90.0390625 223.945312,100.078125 228.007812,100.078125 C234.101562,100.078125 236.25,95.4296875 238.75,95.4296875 C239.375,95.4296875 240.195312,95.859375 240.195312,96.796875 C240.195312,101.484375 232.460938,105.117188 227.734375,105.117188 C218.75,105.117188 217.421875,96.25 215.078125,96.25 C208.90625,96.25 205.117188,108.710938 201.757812,108.710938 Z" id="Wawooh"></path>
            <path d="M232.451172,46.0126953 C232.958336,46.0126953 233.300048,45.9802249 233.476318,45.9152832 C233.652589,45.8503415 233.740723,45.6694351 233.740723,45.3725586 L233.740723,39.8339844 C233.740723,39.5680325 233.649496,39.3948572 233.467041,39.3144531 C233.284586,39.2340491 232.945966,39.1938477 232.451172,39.1938477 L232.451172,38.7578125 L236.189941,38.7578125 C237.136235,38.7578125 237.903155,38.9309879 238.490723,39.2773438 C239.078291,39.6236996 239.37207,40.1030243 239.37207,40.715332 C239.37207,41.222496 239.137047,41.6446109 238.666992,41.9816895 C238.196938,42.318768 237.569177,42.5275061 236.783691,42.6079102 L236.783691,42.6728516 C237.71143,42.969728 238.306721,43.5990349 238.56958,44.560791 C238.832439,45.5225471 239.053547,46.003418 239.23291,46.003418 C239.461752,46.003418 239.625651,45.8797213 239.724609,45.6323242 C239.786459,45.4653312 239.845215,45.1313502 239.900879,44.6303711 L240.364746,44.6303711 C240.321452,45.1870145 240.228679,45.598306 240.086426,45.8642578 C239.826659,46.3466821 239.381351,46.5878906 238.750488,46.5878906 C238.15055,46.5878906 237.748536,46.3930684 237.544434,46.003418 C237.41455,45.7560209 237.327962,45.267419 237.284668,44.5375977 C237.235189,43.7830366 237.065106,43.2975271 236.774414,43.0810547 C236.483723,42.8645823 235.899256,42.7656249 235.020996,42.7841797 L235.020996,45.3725586 C235.020996,45.6694351 235.1416,45.8580725 235.382812,45.9384766 C235.537436,45.9941409 235.84977,46.0188802 236.319824,46.0126953 L236.319824,46.4580078 L232.451172,46.4580078 L232.451172,46.0126953 Z M230.317383,42.6914062 C230.317383,44.2994872 230.886388,45.6725204 232.024414,46.8105469 C233.162441,47.9485734 234.535474,48.5175781 236.143555,48.5175781 C237.751636,48.5175781 239.124669,47.9485734 240.262695,46.8105469 C241.400722,45.6725204 241.969727,44.2994872 241.969727,42.6914062 C241.969727,41.0833253 241.400722,39.7102921 240.262695,38.5722656 C239.124669,37.4342391 237.751636,36.8652344 236.143555,36.8652344 C234.535474,36.8652344 233.162441,37.4342391 232.024414,38.5722656 C230.886388,39.7102921 230.317383,41.0833253 230.317383,42.6914062 Z M229.612305,42.6914062 C229.612305,40.8854076 230.249343,39.345384 231.523438,38.0712891 C232.797532,36.7971942 234.337556,36.1601562 236.143555,36.1601562 C237.949553,36.1601562 239.489577,36.7971942 240.763672,38.0712891 C242.037767,39.345384 242.674805,40.8854076 242.674805,42.6914062 C242.674805,44.4974049 242.037767,46.0374285 240.763672,47.3115234 C239.489577,48.5856183 237.949553,49.2226562 236.143555,49.2226562 C234.337556,49.2226562 232.797532,48.5856183 231.523438,47.3115234 C230.249343,46.0374285 229.612305,44.4974049 229.612305,42.6914062 Z M235.020996,42.3388672 C236.022954,42.3388672 236.687824,42.270834 237.015625,42.1347656 C237.547529,41.9182932 237.813477,41.4389686 237.813477,40.6967773 C237.813477,40.220538 237.672772,39.8509942 237.391357,39.5881348 C237.109943,39.3252754 236.663089,39.1938477 236.050781,39.1938477 C235.73535,39.1938477 235.484864,39.2355953 235.299316,39.3190918 C235.113769,39.4025883 235.020996,39.5742175 235.020996,39.8339844 L235.020996,42.3388672 Z" id="®"></path>
        </g>
    </g>
</svg>